<?xml version="1.0" encoding="UTF-8" standalone="no"?>
<svg
   xmlns:dc="http://purl.org/dc/elements/1.1/"
   xmlns:cc="http://creativecommons.org/ns#"
   xmlns:rdf="http://www.w3.org/1999/02/22-rdf-syntax-ns#"
   xmlns:svg="http://www.w3.org/2000/svg"
   xmlns="http://www.w3.org/2000/svg"
   version="1.1"
   viewBox="0 0 240 414.535"
   height="414.535"
   width="240"
   data-name="Calque 1"
   id="Calque_1">
  <metadata
     id="metadata387">
    <rdf:RDF>
      <cc:Work
         rdf:about="">
        <dc:format>image/svg+xml</dc:format>
        <dc:type
           rdf:resource="http://purl.org/dc/dcmitype/StillImage" />
        <dc:title></dc:title>
      </cc:Work>
    </rdf:RDF>
  </metadata>
  <defs
     id="defs385" />
  <polygon
     transform="matrix(0.52645171,0,0,0.52645171,-19.536171,-23.843309)"
     id="polygon4"
     style="fill:#282520"
     points="184.21,134.399 173.687,125.849 171.714,139.661 160.862,125.521 158.889,140.647 175.66,233.05 140.146,159.391 123.046,146.895 123.046,168.598 178.948,285.663 126.992,206.743 109.235,195.562 111.866,210.689 166.453,297.501 102.001,238.311 80.956,229.104 86.217,244.888 119.1,275.14 109.893,272.51 111.866,281.717 133.569,302.105 132.911,305.393 106.605,285.006 98.055,283.033 101.343,290.925 157.245,340.907 108.58,310.962 95.755,306.522 101.343,317.889 158.232,363.268 161.191,346.169 173.793,338.154 188.92,339.305 191.55,386.328 269.378,384.314 266.418,45.614 259.842,72.578 258.526,191.616 240.769,74.551 229.589,62.713 221.039,79.155 210.188,65.344 205.913,83.101 228.931,197.535 196.048,100.858 184.867,89.678 184.21,105.462 211.832,197.535 " />
  <polygon
     transform="matrix(0.52645171,0,0,0.52645171,-19.536171,-23.843309)"
     id="polygon6"
     style="fill:#282520"
     points="349.763,106.782 320.99,199.513 347.626,134.404 359.3,124.539 360.944,137.857 369.987,125.69 373.439,144.269 357.162,231.246 393.827,156.929 409.118,146.735 409.118,166.63 353.545,285.832 405.501,204.939 422.6,195.732 417.01,214.64 367.027,292.738 435.26,233.383 451.044,230.095 443.317,245.879 411.913,273.665 422.271,272.843 419.312,281.557 376.399,327.266 423.094,284.846 432.959,281.229 429.835,291.751 379.852,337.788 421.778,309.18 435.918,306.22 430.821,318.88 373.728,362.939 372.793,348.238 356.011,336.802 342.529,337.953 340.077,385.958 268.556,383.985 266.404,45.29 272.158,70.774 275.118,193.265 292.217,73.569 302.411,61.896 309.317,76.2 303.562,121.25 311.947,77.68 322.306,66.335 325.43,80.968 306.028,199.513 335.952,103 347.133,90.998 " />
  <polygon
     transform="matrix(0.52645171,0,0,0.52645171,-19.536171,-23.843309)"
     id="polygon8"
     style="fill:#1a1810"
     points="141.654,398.707 148.231,392.131 155.246,389.062 160.508,389.938 141.68,522.969 120.912,522.98 102.775,522.969 119.294,474.559 132.009,431.152 " />
  <polygon
     transform="matrix(0.52645171,0,0,0.52645171,-19.536171,-23.843309)"
     id="polygon10"
     style="fill:#1a1810"
     points="392.446,400.461 385.869,393.884 378.854,390.815 370.272,391.59 392.797,522.959 414.336,522.986 431.737,522.959 414.806,476.312 402.092,432.906 " />
  <polygon
     transform="matrix(0.52645171,0,0,0.52645171,-19.536171,-23.843309)"
     id="polygon12"
     style="fill:#1f1c1a"
     points="179.277,432.324 266.747,432.324 265.682,522.959 120.727,522.969 150.34,436.927 156.916,401.413 157.187,348.512 182.894,348.142 " />
  <path
     id="path14"
     style="fill:#221f1d;stroke-width:0.52645171"
     d="m 75.133108,193.59805 c 1.154106,0 89.931812,-0.67062 89.931812,-0.67062 l 1.70408,11.75 -92.559157,0.34625 z" />
  <polygon
     transform="matrix(0.52645171,0,0,0.52645171,-19.536171,-23.843309)"
     id="polygon16"
     style="fill:#4f4645"
     points="350.854,348.578 372.957,348.293 357.431,338.055 343.4,338.713 " />
  <polygon
     transform="matrix(0.52645171,0,0,0.52645171,-19.536171,-23.843309)"
     id="polygon18"
     style="fill:#38332f"
     points="351.621,414.893 350.854,348.578 343.4,338.713 340.112,386.613 " />
  <polygon
     transform="matrix(0.52645171,0,0,0.52645171,-19.536171,-23.843309)"
     id="polygon20"
     style="fill:#1f1c1d"
     points="204.964,392.171 163.531,336.926 156.625,342.188 153.008,338.571 159.256,331.665 148.076,317.854 149.72,316.21 158.927,327.061 162.544,330.021 174.382,321.8 178,326.404 169.45,332.652 213.843,391.513 " />
  <polygon
     transform="matrix(0.52645171,0,0,0.52645171,-19.536171,-23.843309)"
     id="polygon22"
     style="fill:#1f1c1d"
     points="187.536,291.876 180.959,270.831 175.369,271.488 182.603,298.782 180.63,307.331 208.581,349.093 191.153,299.11 197.401,298.124 196.085,291.218 " />
  <polygon
     transform="matrix(0.52645171,0,0,0.52645171,-19.536171,-23.843309)"
     id="polygon24"
     style="fill:#1f1c1d"
     points="330.25,298.782 336.169,301.083 344.39,281.025 341.759,278.394 344.061,275.434 351.624,280.696 350.309,283.326 346.363,284.313 339.457,302.399 347.678,323.115 332.223,321.142 320.714,354.026 325.646,315.552 " />
  <polygon
     transform="matrix(0.52645171,0,0,0.52645171,-19.536171,-23.843309)"
     id="polygon26"
     style="fill:#1f1c1d"
     points="346.363,361.26 341.102,351.066 306.574,392.828 318.741,392.171 " />
  <polygon
     transform="matrix(0.52645171,0,0,0.52645171,-19.536171,-23.843309)"
     id="polygon28"
     style="fill:#1f1c1d"
     points="329.921,279.38 341.43,228.411 349.98,228.411 350.638,224.794 341.43,220.519 341.453,220.203 345.048,201.447 348.336,198.487 341.924,196.843 342.501,200.306 341.779,204.246 338.021,220.446 328.277,219.532 326.633,225.123 335.84,227.424 319.399,282.011 324.66,296.48 " />
  <path
     id="path30"
     style="fill:#1f1c1d;stroke-width:0.52645171"
     d="m 144.63005,97.269651 -13.50302,-3.11606 -0.54858,-4.3279 h 0.37548 v -12.89714 a 24.004359,24.004359 0 0 0 2.16395,-1.81772 c 0.34621,-0.43277 -5.53971,-0.25967 -5.53971,-0.25967 l 1.47148,2.16394 v 12.81057 h 0.4118 l -0.0657,4.84724 -14.02235,2.42361 1.73115,2.942969 11.07939,-1.211819 0.17312,27.698509 3.80857,0.86558 -0.69248,-29.083419 11.94498,2.769849 z" />
  <polygon
     transform="matrix(0.52645171,0,0,0.52645171,-19.536171,-23.843309)"
     id="polygon32"
     style="fill:#1f1c1d"
     points="231.271,227.424 222.063,226.767 221.406,220.19 231.271,219.204 230.284,189.937 233.901,189.608 236.861,215.915 246.726,218.217 245.411,227.424 240.807,228.74 241.465,270.502 234.888,273.461 " />
  <path
     id="path34"
     style="fill:#1f1c1d;stroke-width:0.52645171"
     d="m 102.21673,80.390861 -1.38493,-1.12526 -0.0867,-1.64458 c 0,0 0.25968,-1.4715 0.51934,-1.4715 0.25967,0 2.33706,-0.17311 2.33706,-0.17311 l 0.69247,3.72203 z" />
  <path
     id="path36"
     style="fill:#1f1c1d;stroke-width:0.52645171"
     d="m 90.791087,118.73598 c 0,-0.69247 -3.462311,-14.88794 -3.462311,-14.88794 l -9.002015,0.69246 v -2.943 l 8.655786,-1.2118 -2.596734,-17.657789 1.731151,0.17313 2.423616,8.13641 3.116074,7.44397 c 0,0 6.751514,-2.07739 7.270848,0.17311 a 4.0211488,4.0211488 0 0 1 -0.865576,3.635449 l -4.501002,0.86557 -0.519346,15.40729 z" />
  <polygon
     transform="matrix(0.52645171,0,0,0.52645171,-19.536171,-23.843309)"
     id="polygon38"
     style="fill:#1f1c1d"
     points="199.045,209.667 202.004,208.516 203.649,205.557 202.498,202.762 197.401,202.433 194.277,205.557 196.743,209.339 " />
  <polygon
     transform="matrix(0.52645171,0,0,0.52645171,-19.536171,-23.843309)"
     id="polygon40"
     style="fill:#35302c"
     points="346.818,307.257 355.368,314.162 297.822,384.423 312.291,385.081 364.247,322.493 374.112,330.056 377.4,326.768 367.206,316.574 382.99,295.857 385.511,294.432 385.95,292.349 384.854,289.828 382.661,289.061 380.688,289.938 379.483,292.788 362.055,311.86 351.422,301.995 " />
  <polygon
     transform="matrix(0.52645171,0,0,0.52645171,-19.536171,-23.843309)"
     id="polygon42"
     style="fill:#35302c"
     points="310.318,241.764 318.21,212.497 317.223,205.427 321.005,204.934 326.431,206.907 324.458,211.182 321.663,214.635 319.854,242.586 337.447,249.327 337.447,256.068 320.018,254.424 297.987,385.081 284.998,384.642 307.029,251.958 289.601,248.998 289.437,244.559 " />
  <path
     id="path44"
     style="fill:#35302c;stroke-width:0.52645171"
     d="m 127.12551,177.87336 -2.59673,-76.08433 3.8951,2.07737 -0.51935,-5.020339 -5.36658,-1.38493 -1.03867,-14.10891 2.07736,-0.60591 -2.16394,-1.99083 -2.07738,-0.0867 -2.33707,2.68331 1.73114,0.0867 0.17314,14.45517 c 0,0 -5.7994,2.07737 -5.88593,2.337049 -0.0867,0.25968 0.51934,4.24133 0.51934,4.24133 l 3.98165,-2.07738 2.76986,75.65155 z" />
  <polygon
     transform="matrix(0.52645171,0,0,0.52645171,-19.536171,-23.843309)"
     id="polygon46"
     style="fill:#35302c"
     points="199.665,254.259 213.312,252.78 235.121,384.848 244.328,384.355 223.012,251.3 236.494,248.998 234.686,243.572 220.217,244.723 216.435,217.266 219.066,216.115 215.778,211.018 205.748,213.32 205.584,219.567 208.872,218.581 213.64,245.874 198.185,248.669 " />
  <polygon
     transform="matrix(0.52645171,0,0,0.52645171,-19.536171,-23.843309)"
     id="polygon48"
     style="fill:#35302c"
     points="170.234,307.695 177.633,303.585 223.283,379.258 220.053,356.692 184.538,298.817 191.608,294.213 190.129,290.596 180.757,294.377 163.822,271.359 165.137,270.372 161.684,266.262 157.903,268.728 160.04,274.812 161.684,273.99 175.66,297.666 168.261,304.407 " />
  <polygon
     transform="matrix(0.52645171,0,0,0.52645171,-19.536171,-23.843309)"
     id="polygon50"
     style="fill:#1a1815"
     points="264.809,307.693 266.015,308.57 266.563,332.575 261.74,333.671 255.711,336.301 252.313,338.932 251.984,343.207 263.055,343.207 265.045,384.026 277.212,383.862 277.305,342.22 287.498,342.22 288.156,337.946 280.483,333.451 273.359,332.355 272.262,308.241 273.468,306.706 273.578,304.514 270.399,302.431 267.988,302.212 265.357,303.418 263.713,305.391 " />
  <polygon
     transform="matrix(0.52645171,0,0,0.52645171,-19.536171,-23.843309)"
     id="polygon52"
     style="fill:#1a1815"
     points="327.287,312.296 315.23,384.64 303.683,384.848 317.422,310.762 304.707,308.789 306.352,299.362 322.026,301.883 329.26,269.767 326.411,269 334.083,260.56 337.262,271.082 335.07,271.082 328.932,302.979 343.291,305.61 341.975,315.366 " />
  <polygon
     transform="matrix(0.52645171,0,0,0.52645171,-19.536171,-23.843309)"
     id="polygon54"
     style="fill:#1a1815"
     points="229.404,276.453 243.215,274.919 249.918,384.355 258.633,384.026 252.642,274.7 264.918,273.604 263.822,263.519 251.765,264.615 245.408,227.128 248.258,226.251 247.6,221.209 236.419,222.086 237.077,227.128 240.585,226.909 241.9,265.273 228.089,267.027 " />
  <polygon
     transform="matrix(0.52645171,0,0,0.52645171,-19.536171,-23.843309)"
     id="polygon56"
     style="fill:#1a1815"
     points="235.285,384.684 222.06,302.431 235.543,299.472 232.254,291.251 219.758,292.238 215.812,276.453 214.497,270.534 209.893,270.863 213.182,294.539 198.384,299.472 197.727,306.049 214.168,302.76 224.269,385.177 " />
  <polygon
     transform="matrix(0.52645171,0,0,0.52645171,-19.536171,-23.843309)"
     id="polygon58"
     style="fill:#1c1917"
     points="274.97,287.286 281.218,288.93 281.487,384.026 293.653,384.191 296.016,289.259 300.291,288.93 305.223,279.722 292.399,278.736 291.412,244.866 294.701,244.866 296.016,235.001 283.52,235.001 283.191,244.866 288.453,244.866 286.151,278.407 272.011,279.722 " />
  <polygon
     transform="matrix(0.52645171,0,0,0.52645171,-19.536171,-23.843309)"
     id="polygon60"
     style="fill:#48413e"
     points="268.72,383.985 191.715,386.164 180.041,413.457 350.651,412.361 340.406,385.629 " />
  <polygon
     transform="matrix(0.52645171,0,0,0.52645171,-19.536171,-23.843309)"
     id="polygon62"
     style="fill:#221f1d"
     points="350.597,413.293 352.244,433.31 266.453,434.623 266.782,413.249 " />
  <polygon
     transform="matrix(0.52645171,0,0,0.52645171,-19.536171,-23.843309)"
     id="polygon64"
     style="fill:#4f4645"
     points="349.868,348.578 373.177,348.293 356.19,336.633 342.16,338.058 " />
  <polygon
     transform="matrix(0.52645171,0,0,0.52645171,-19.536171,-23.843309)"
     id="polygon66"
     style="fill:#1f1c1a"
     points="349.884,348.457 373.286,348.129 378.257,438.785 403.183,522.986 265.467,522.967 265.702,434.174 350.871,433.461 " />
  <polygon
     transform="matrix(0.52645171,0,0,0.52645171,-19.536171,-23.843309)"
     id="polygon68"
     style="fill:#38332f"
     points="350.542,412.471 349.868,348.578 342.27,338.167 339.126,386.613 " />
  <polygon
     transform="matrix(0.52645171,0,0,0.52645171,-19.536171,-23.843309)"
     id="polygon70"
     style="fill:#38332f"
     points="182.178,348.512 179.712,414.279 192.043,386.493 188.92,339.305 " />
  <polygon
     transform="matrix(0.52645171,0,0,0.52645171,-19.536171,-23.843309)"
     id="polygon72"
     style="fill:#4f4645"
     points="189.742,338.976 182.672,348.512 157.351,348.348 171.327,337.496 " />
  <polygon
     transform="matrix(0.52645171,0,0,0.52645171,-19.536171,-23.843309)"
     id="polygon74"
     style="fill:#282520"
     points="215.391,457.028 223.129,522.959 208.413,522.969 202.402,458.507 209.143,442.559 " />
  <polygon
     transform="matrix(0.52645171,0,0,0.52645171,-19.536171,-23.843309)"
     id="polygon76"
     style="fill:#282520"
     points="260.77,458.343 265.23,522.98 249.24,522.98 246.959,461.138 253.371,440.586 " />
  <polygon
     transform="matrix(0.52645171,0,0,0.52645171,-19.536171,-23.843309)"
     id="polygon78"
     style="fill:#282520"
     points="299.079,520 295.462,468.701 289.379,457.521 283.624,470.51 286.584,520.164 " />
  <polygon
     transform="matrix(0.52645171,0,0,0.52645171,-19.536171,-23.843309)"
     id="polygon80"
     style="fill:#151515"
     points="319.357,455.548 328.784,456.644 330.538,448.533 334.922,451.163 335.58,456.644 348.076,458.179 347.637,462.563 336.895,461.905 334.703,473.086 329.222,472.647 329.88,463.001 318.261,460.152 " />
  <polygon
     transform="matrix(0.52645171,0,0,0.52645171,-19.536171,-23.843309)"
     id="polygon82"
     style="fill:#151515"
     points="200.179,459.544 201.275,465.025 191.41,467.217 185.272,466.34 177.599,466.34 177.38,461.079 183.957,461.298 186.807,458.229 186.587,446.172 183.957,443.102 184.614,439.595 187.464,438.937 190.972,439.376 193.164,443.541 190.753,446.172 191.849,461.517 " />
  <polygon
     transform="matrix(0.52645171,0,0,0.52645171,-19.536171,-23.843309)"
     id="polygon84"
     style="fill:#151515"
     points="235.255,468.313 236.789,482.563 230.87,483.878 229.774,470.067 229.117,466.998 224.074,467.217 223.417,461.298 229.336,460.86 229.555,448.583 227.582,446.391 227.582,443.541 230.651,442.664 233.94,444.199 234.159,446.829 232.843,448.583 233.063,459.763 241.612,462.394 246.216,464.148 245.339,468.752 " />
  <polygon
     transform="matrix(0.52645171,0,0,0.52645171,-19.536171,-23.843309)"
     id="polygon86"
     style="fill:#151515"
     points="283.265,471.163 276.03,472.698 277.592,522.969 271.93,522.969 270.55,472.478 264.85,467.655 264.85,465.025 271.427,465.463 271.427,445.514 267.042,444.856 267.261,441.787 279.1,442.226 278.88,445.952 274.277,445.733 275.373,464.586 285.238,466.121 " />
  <polygon
     transform="matrix(0.52645171,0,0,0.52645171,-19.536171,-23.843309)"
     id="polygon88"
     style="fill:#151515"
     points="306.502,459.983 302.556,460.421 303.683,522.98 293.51,522.969 294.445,461.298 290.28,460.64 293.13,453.406 296.857,453.187 296.637,443.102 294.226,442.445 294.226,439.595 302.337,440.033 301.68,442.664 299.487,443.102 300.145,453.187 302.995,453.406 " />
  <path
     id="path90"
     style="fill:#12100d;stroke-width:0.52645171"
     d="m 47.20267,214.1532 -3.029525,-7.70367 c 0,0 2.769852,-0.34619 2.683291,-0.95212 -0.08656,-0.6059 -5.193445,-16.87878 -5.193445,-16.87878 l 4.501005,-0.69246 5.280026,14.62827 -3.375756,11.77186 z" />
  <path
     id="path92"
     style="fill:#2e2925;stroke-width:0.52645171"
     d="m 49.154957,251.47479 3.760529,-35.76354 3.202637,-7.35742 c 0,0 2.683293,5.45313 2.856412,6.05903 0.173119,0.60591 -1.537075,37.07276 -1.537075,37.07276 z" />
  <path
     id="path94"
     style="fill:#2e2925;stroke-width:0.52645171"
     d="m 61.4083,251.47479 c 0,0 0.941992,-40.69735 1.201663,-40.95701 0.259672,-0.25969 4.241332,-5.79941 4.241332,-5.79941 l 4.327896,5.71283 0.350965,41.04357 z" />
  <polygon
     transform="matrix(0.52645171,0,0,0.52645171,-19.536171,-23.843309)"
     id="polygon96"
     style="fill:#12100d"
     points="180.042,469.505 182.805,522.98 203.368,522.99 195.333,467.203 187.77,457.502 " />
  <polygon
     transform="matrix(0.52645171,0,0,0.52645171,-19.536171,-23.843309)"
     id="polygon98"
     style="fill:#12100d"
     points="213.419,478.383 223.54,522.99 208.331,522.969 202.567,481.836 203.883,467.532 " />
  <polygon
     transform="matrix(0.52645171,0,0,0.52645171,-19.536171,-23.843309)"
     id="polygon100"
     style="fill:#12100d"
     points="229.696,518.501 233.642,518.337 234.515,522.969 247.863,522.969 247.782,517.679 251.235,517.679 250.906,511.102 245.48,510.774 242.028,495.154 243.343,494.332 242.028,488.577 234.464,489.235 234.629,493.839 236.273,494.167 237.26,511.267 229.203,512.253 " />
  <polygon
     transform="matrix(0.52645171,0,0,0.52645171,-19.536171,-23.843309)"
     id="polygon102"
     style="fill:#12100d"
     points="275.24,501.813 275.24,504.115 274.418,505.923 267.184,506.417 267.182,522.98 256.341,522.969 256.168,508.061 249.92,507.732 246.138,502.142 258.141,502.142 259.292,482.74 257.647,479.288 257.976,475.506 261.922,472.547 265.375,476.657 266.033,479.288 264.553,482.247 265.211,501.32 " />
  <polygon
     transform="matrix(0.52645171,0,0,0.52645171,-19.536171,-23.843309)"
     id="polygon104"
     style="fill:#12100d"
     points="298.094,520.063 291.846,520.063 291.074,522.99 280.634,522.969 280.008,519.899 273.431,517.104 273.431,514.309 281.488,515.131 283.79,497.702 282.146,496.88 283.132,488.824 293.161,490.304 292.011,499.018 290.038,498.689 289.544,515.788 298.752,518.583 " />
  <polygon
     transform="matrix(0.52645171,0,0,0.52645171,-19.536171,-23.843309)"
     id="polygon106"
     style="fill:#12100d"
     points="342.816,477.232 339.198,477.89 340.019,522.99 328.284,522.969 327.525,477.232 323.085,476.575 322.428,468.683 330.484,468.354 330.649,449.282 326.703,448.953 327.36,437.772 338.376,438.266 338.212,449.446 336.403,449.446 336.074,467.696 342.322,467.861 " />
  <polygon
     transform="matrix(0.52645171,0,0,0.52645171,-19.536171,-23.843309)"
     id="polygon108"
     style="fill:#0e0b0a"
     points="383.755,482.329 394.688,522.969 410.349,522.969 396.909,475.917 387.044,462.928 " />
  <polygon
     transform="matrix(0.52645171,0,0,0.52645171,-19.536171,-23.843309)"
     id="polygon110"
     style="fill:#171412"
     points="177.686,385.871 173.301,386.529 171.767,458.653 161.682,438.704 164.751,386.748 160.586,386.529 160.586,379.733 165.19,379.733 166.505,363.072 162.998,362.634 163.875,352.33 176.151,352.549 176.37,363.949 171.986,363.51 171.328,379.733 178.124,380.171 " />
  <polygon
     transform="matrix(0.52645171,0,0,0.52645171,-19.536171,-23.843309)"
     id="polygon112"
     style="fill:#12100d"
     points="304.506,464.079 303.066,522.99 323.136,522.98 320.455,463.421 312.563,455.858 " />
  <polygon
     transform="matrix(0.52645171,0,0,0.52645171,-19.536171,-23.843309)"
     id="polygon114"
     style="fill:#110e0e"
     points="212.433,464.079 212.104,469.669 217.694,469.34 219.667,491.044 227.395,510.28 231.505,501.566 226.901,469.505 231.669,469.505 231.505,462.928 224.599,461.448 223.12,447.473 226.737,447.144 225.586,438.101 216.05,438.266 214.57,447.966 217.365,447.473 218.68,462.27 " />
  <path
     id="path116"
     style="fill:#0e0b0a;stroke-width:0.52645171"
     d="m 168.903,242.63072 c 0,-0.43278 -0.0867,-14.19549 -0.0867,-14.19549 l -2.8564,-3.72201 -3.54885,3.80855 -1.13676,22.95299 7.90379,0.006 z" />
  <polygon
     transform="matrix(0.52645171,0,0,0.52645171,-19.536171,-23.843309)"
     id="polygon118"
     style="fill:#0e0b0a"
     points="360.408,360.167 359.915,366.58 353.009,366.908 353.503,374.8 356.627,375.129 359.751,451.419 371.26,470.327 372.904,465.723 368.136,374.8 370.931,374.307 370.109,366.415 365.341,366.086 364.354,359.51 365.176,357.372 364.683,354.906 363.203,353.097 360.079,352.933 358.106,354.906 358.106,358.359 " />
  <polygon
     transform="matrix(0.52645171,0,0,0.52645171,-19.536171,-23.843309)"
     id="polygon120"
     style="fill:#0e0b0a"
     points="415.104,507.979 421.023,500.525 419.27,497.017 426.504,489.783 428.258,491.537 432.204,486.275 428.258,480.356 422.12,482.768 423.216,484.96 414.447,491.318 412.693,486.933 406.116,491.756 " />
  <polygon
     transform="matrix(0.52645171,0,0,0.52645171,-19.536171,-23.843309)"
     id="polygon122"
     style="fill:#0e0b0a"
     points="409.461,464.864 407.651,465.668 404.801,461.503 400.197,457.557 394.936,456.461 393.182,459.311 401.074,468.299 394.278,470.93 399.101,481.014 402.828,477.068 404.362,484.522 410.72,482.549 408.528,471.587 426.285,462.38 429.792,462.38 433.3,458.873 432.423,454.926 428.258,453.173 423.216,454.707 422.558,457.338 423.435,458.653 " />
  <polygon
     transform="matrix(0.52645171,0,0,0.52645171,-19.536171,-23.843309)"
     id="polygon124"
     style="fill:#0e0b0a"
     points="401.732,432.127 409.624,433.004 408.966,445.5 414.885,446.158 414.447,453.83 410.939,454.707 409.405,474.437 404.582,469.395 400.636,443.308 " />
  <path
     id="path126"
     style="fill:#0e0b0a;stroke-width:0.52645171"
     d="m 178.22237,192.34062 3.46231,-5.19344 -2.42361,-1.7312 2.53903,-3.80853 2.76984,1.84656 3.69312,-5.30888 -0.3462,-1.26952 0.69246,-1.38493 1.84655,-0.11538 1.1541,0.80786 0.34624,1.38491 c 0,0 -0.34624,1.38493 -0.69245,1.50035 -0.34624,0.11541 -1.1541,0.34623 -1.1541,0.34623 l -2.30821,5.5397 3.11606,2.65445 -2.07738,3.3469 -2.88526,-1.38492 -4.03935,5.7705 z" />
  <polygon
     transform="matrix(0.52645171,0,0,0.52645171,-19.536171,-23.843309)"
     id="polygon128"
     style="fill:#282520"
     points="143.706,351.782 147.323,369.375 138.116,372.17 140.089,380.555 144.035,379.733 147.323,396.01 157.517,391.078 157.188,366.251 154.393,366.908 152.091,358.03 " />
  <polygon
     transform="matrix(0.52645171,0,0,0.52645171,-19.536171,-23.843309)"
     id="polygon130"
     style="fill:#2e2925"
     points="147.981,403.573 150.94,409.986 144.364,415.083 147.652,420.508 144.693,436.786 135.156,420.673 129.895,423.632 125.949,418.207 132.361,413.274 124.469,395.024 122.661,395.846 117.728,389.434 127.758,384.337 131.704,391.407 130.059,392.722 139.76,408.342 " />
  <polygon
     transform="matrix(0.52645171,0,0,0.52645171,-19.536171,-23.843309)"
     id="polygon132"
     style="fill:#2e2925"
     points="119.866,448.131 121.674,445.664 115.755,441.225 109.178,447.802 85.831,444.02 84.68,449.117 105.561,459.64 106.548,469.834 114.604,469.012 115.097,464.243 129.731,469.176 132.032,452.241 " />
  <polygon
     transform="matrix(0.52645171,0,0,0.52645171,-19.536171,-23.843309)"
     id="polygon134"
     style="fill:#2e2925"
     points="117.728,478.712 115.262,481.178 123.976,490.715 120.852,500.744 107.699,489.893 104.904,493.839 97.012,486.933 101.944,481.507 89.613,468.19 87.64,469.834 83.2,466.052 89.777,459.475 94.216,463.586 92.408,465.394 106.548,476.575 111.645,472.136 " />
  <path
     id="path136"
     style="fill:#2d2823;stroke-width:0.52645171"
     d="m 180.26938,209.93299 2.42361,0.34623 2.07739,1.96197 1.26952,1.61575 1.50034,-2.76985 -1.03869,-2.19279 -3.00068,-2.65446 -1.38492,-1.15408 1.50033,-11.54106 0.80789,-0.34623 0.46163,-1.73116 -0.34624,-1.50033 -1.38492,-1.26953 -1.26951,0.57707 c 0,0 -0.92329,1.84656 -0.80787,2.19279 a 6.2140936,6.2140936 0 0 1 0.11541,1.26952 l -2.65445,8.42495 z" />
  <polygon
     transform="matrix(0.52645171,0,0,0.52645171,-19.536171,-23.843309)"
     id="polygon138"
     style="fill:#2d2823"
     points="428.2,404.381 424.912,401.75 418.993,402.627 417.239,405.258 416.8,408.546 411.758,412.054 407.155,415.561 403.866,418.411 401.674,421.042 397.509,418.63 393.344,416.877 389.617,415.561 389.836,421.042 394.878,423.673 399.043,427.619 402.332,433.976 403.209,440.553 409.785,439.237 408.689,433.099 405.62,425.865 413.512,420.603 418.335,416.877 421.185,413.369 426.008,413.15 428.858,408.546 " />
  <path
     id="path140"
     style="fill:#2e2925;stroke-width:0.52645171"
     d="m 181.74532,251.47479 -7.99509,-34.4652 c 0,0 -4.06824,-5.71282 -4.06824,-5.36659 0,0.34622 -1.38559,6.84783 -1.38559,6.84783 l 7.01117,32.99478 z" />
  <polygon
     transform="matrix(0.52645171,0,0,0.52645171,-19.536171,-23.843309)"
     id="polygon142"
     style="fill:#23211c"
     points="214.733,495.063 230.079,502.516 231.833,499.667 224.598,491.336 284.665,450.78 287.077,443.545 280.719,442.449 219.556,484.54 213.199,475.99 210.349,477.744 211.006,491.117 196.757,503.174 194.126,503.393 191.715,504.709 191.934,507.778 194.126,510.189 196.757,509.97 198.291,507.339 " />
  <polygon
     transform="matrix(0.52645171,0,0,0.52645171,-19.536171,-23.843309)"
     id="polygon144"
     style="fill:#23211c"
     points="370.601,513.039 369.285,509.751 365.778,508.436 362.49,508.874 342.979,498.132 345.609,490.021 341.006,486.732 339.69,490.678 338.594,494.844 260.551,457.137 250.905,456.26 252.22,461.96 335.306,504.489 333.333,508.655 329.387,511.505 330.702,514.135 335.087,512.162 337.937,509.532 340.129,505.586 360.078,513.697 362.051,517.204 365.559,518.52 368.847,516.766 " />
  <polygon
     transform="matrix(0.52645171,0,0,0.52645171,-19.536171,-23.843309)"
     id="polygon146"
     style="opacity:0.55;fill:#828485"
     points="159.735,344.402 106.607,311.455 97.482,308.167 105.84,313.044 157.023,346.046 " />
  <polygon
     transform="matrix(0.52645171,0,0,0.52645171,-19.536171,-23.843309)"
     id="polygon148"
     style="opacity:0.55;fill:#828485"
     points="133.16,307.098 106.525,286.217 99.948,284.573 105.401,288.053 138.285,314.36 " />
  <polygon
     transform="matrix(0.52645171,0,0,0.52645171,-19.536171,-23.843309)"
     id="polygon150"
     style="opacity:0.55;fill:#828485"
     points="119.514,280.353 124.337,281.668 119.733,276.407 111.622,274.214 " />
  <polygon
     transform="matrix(0.52645171,0,0,0.52645171,-19.536171,-23.843309)"
     id="polygon152"
     style="opacity:0.55;fill:#828485"
     points="165.468,299.535 101.757,240.016 83.835,231.713 " />
  <polygon
     transform="matrix(0.52645171,0,0,0.52645171,-19.536171,-23.843309)"
     id="polygon154"
     style="opacity:0.55;fill:#828485"
     points="160.207,260.814 126.337,208.941 110.498,197.87 " />
  <polygon
     transform="matrix(0.52645171,0,0,0.52645171,-19.536171,-23.843309)"
     id="polygon156"
     style="opacity:0.55;fill:#828485"
     points="137.846,161.342 181.253,252.758 136.531,164.63 125.351,152.135 " />
  <polygon
     transform="matrix(0.52645171,0,0,0.52645171,-19.536171,-23.843309)"
     id="polygon158"
     style="opacity:0.55;fill:#828485"
     points="170.182,305.7 169.414,304.714 175.991,298.028 179.389,297.699 180.485,295.068 189.693,291.341 190.131,292.876 " />
  <polygon
     transform="matrix(0.52645171,0,0,0.52645171,-19.536171,-23.843309)"
     id="polygon160"
     style="opacity:0.55;fill:#828485"
     points="159.549,270.844 162.619,268.652 161.413,267.336 158.782,269.2 " />
  <polygon
     transform="matrix(0.52645171,0,0,0.52645171,-19.536171,-23.843309)"
     id="polygon162"
     style="opacity:0.55;fill:#828485"
     points="232.551,295.616 221.37,295.726 214.026,297.26 198.79,302.741 199.229,300.001 213.917,295.616 220.822,294.082 231.455,292.876 " />
  <polygon
     transform="matrix(0.52645171,0,0,0.52645171,-19.536171,-23.843309)"
     id="polygon164"
     style="opacity:0.55;fill:#828485"
     points="251.185,265.802 262.804,264.596 263.132,267.117 251.294,267.884 248.444,269.967 242.635,267.994 229.81,270.077 229.482,268.104 242.964,266.459 247.787,267.227 " />
  <polygon
     transform="matrix(0.52645171,0,0,0.52645171,-19.536171,-23.843309)"
     id="polygon166"
     style="opacity:0.55;fill:#828485"
     points="206.463,214.175 215.123,212.311 216.876,214.394 206.354,216.367 " />
  <polygon
     transform="matrix(0.52645171,0,0,0.52645171,-19.536171,-23.843309)"
     id="polygon168"
     style="opacity:0.86000001;fill:#828485"
     points="214.574,246.949 220.932,245.852 233.976,244.537 234.633,246.62 199.777,251.662 199.338,249.689 " />
  <polygon
     transform="matrix(0.52645171,0,0,0.52645171,-19.536171,-23.843309)"
     id="polygon170"
     style="opacity:0.55;fill:#828485"
     points="238.141,224.971 247.019,224.314 246.691,222.67 237.812,222.998 " />
  <polygon
     transform="matrix(0.52645171,0,0,0.52645171,-19.536171,-23.843309)"
     id="polygon172"
     style="opacity:0.55;fill:#828485"
     points="285.493,236.645 294.207,236.645 293.714,238.783 285.329,239.111 " />
  <path
     id="path174"
     style="opacity:0.55;fill:#828485;stroke-width:0.52645171"
     d="m 124.61658,124.19607 7.01118,-0.43277 1.81774,0.51934 c 0,0 0.51932,-0.51934 0.77901,-0.51934 0.25967,0 5.88593,0.17311 5.88593,0.17311 l -0.69247,1.55803 -4.7607,-0.34623 -1.47147,0.69248 -1.4715,-1.21182 -6.49182,0.60589 z" />
  <polygon
     transform="matrix(0.52645171,0,0,0.52645171,-19.536171,-23.843309)"
     id="polygon176"
     style="opacity:0.55;fill:#828485"
     points="267.736,335.46 273.491,335.296 288.617,339.899 288.946,338.091 277.766,334.638 273.326,333.816 266.421,333.816 258.858,335.624 251.788,340.064 253.925,341.215 260.666,336.94 " />
  <polygon
     transform="matrix(0.52645171,0,0,0.52645171,-19.536171,-23.843309)"
     id="polygon178"
     style="opacity:0.55;fill:#828485"
     points="266.914,303.563 269.709,303.563 272.504,305.372 271.353,306.851 269.216,304.549 265.105,305.536 " />
  <polygon
     transform="matrix(0.52645171,0,0,0.52645171,-19.536171,-23.843309)"
     id="polygon180"
     style="opacity:0.55;fill:#828485"
     points="341.395,306.687 340.902,309.811 306.703,304.056 307.032,301.261 " />
  <polygon
     transform="matrix(0.52645171,0,0,0.52645171,-19.536171,-23.843309)"
     id="polygon182"
     style="opacity:0.55;fill:#828485"
     points="333.832,263.116 334.983,268.871 329.886,267.062 " />
  <polygon
     transform="matrix(0.52645171,0,0,0.52645171,-19.536171,-23.843309)"
     id="polygon184"
     style="opacity:0.55;fill:#828485"
     points="264.119,199.816 266.585,199.651 269.051,202.282 261.981,202.446 " />
  <polygon
     transform="matrix(0.52645171,0,0,0.52645171,-19.536171,-23.843309)"
     id="polygon186"
     style="opacity:0.55;fill:#828485"
     points="268.723,233.85 263.626,233.521 253.761,239.933 253.267,236.974 263.79,232.041 268.394,231.548 280.889,235.33 280.889,237.96 " />
  <path
     id="path188"
     style="opacity:0.7;fill:#828485;stroke-width:0.52645171"
     d="m 136.38846,104.72056 c 0.6059,-0.0867 7.53051,-0.86557 7.53051,-0.86557 l 4.84725,0.43279 9.34824,3.11607 -0.34623,1.21182 -9.08857,-3.28921 -4.84722,-0.25968 -7.53055,0.95213 z" />
  <polygon
     transform="matrix(0.52645171,0,0,0.52645171,-19.536171,-23.843309)"
     id="polygon190"
     style="opacity:0.55;fill:#828485"
     points="324.296,208.365 319.692,207.708 318.87,205.735 322.323,205.077 323.967,205.57 " />
  <polygon
     transform="matrix(0.52645171,0,0,0.52645171,-19.536171,-23.843309)"
     id="polygon192"
     style="opacity:0.55;fill:#828485"
     points="374.936,326.746 350.602,305.7 352.247,303.07 361.947,312.113 375.758,325.43 " />
  <polygon
     transform="matrix(0.52645171,0,0,0.52645171,-19.536171,-23.843309)"
     id="polygon194"
     style="opacity:0.55;fill:#828485"
     points="385.788,293.698 383.486,292.711 382.335,289.916 384.801,289.752 386.281,291.725 " />
  <polygon
     transform="matrix(0.52645171,0,0,0.52645171,-19.536171,-23.843309)"
     id="polygon196"
     style="opacity:0.55;fill:#828485"
     points="171.716,141.941 171.387,145.229 161.851,135.035 161.522,130.103 " />
  <polygon
     transform="matrix(0.52645171,0,0,0.52645171,-19.536171,-23.843309)"
     id="polygon198"
     style="opacity:0.55;fill:#828485"
     points="182.897,136.35 211.834,204.419 181.253,139.31 175.333,130.431 " />
  <polygon
     transform="matrix(0.52645171,0,0,0.52645171,-19.536171,-23.843309)"
     id="polygon200"
     style="opacity:0.49000005;fill:#828485"
     points="181.356,410.991 180.205,413.786 350.274,412.901 350.274,410.599 " />
  <polygon
     transform="matrix(0.52645171,0,0,0.52645171,-19.536171,-23.843309)"
     id="polygon202"
     style="opacity:0.55;fill:#828485"
     points="220.384,82.093 247.019,200.144 218.411,83.408 210.848,69.926 " />
  <polygon
     transform="matrix(0.52645171,0,0,0.52645171,-19.536171,-23.843309)"
     id="polygon204"
     style="opacity:0.55;fill:#828485"
     points="238.985,75.168 256.885,192.581 236.497,76.831 230.578,65.98 " />
  <polygon
     transform="matrix(0.52645171,0,0,0.52645171,-19.536171,-23.843309)"
     id="polygon206"
     style="opacity:0.55;fill:#828485"
     points="193.091,102.152 226.961,201.131 195.064,101.165 186.207,92.761 " />
  <polygon
     transform="matrix(0.52645171,0,0,0.52645171,-19.536171,-23.843309)"
     id="polygon208"
     style="opacity:0.55;fill:#828485"
     points="356.302,336.72 342.162,338.365 342.71,338.913 356.083,338.255 372.634,347.682 " />
  <polygon
     transform="matrix(0.52645171,0,0,0.52645171,-19.536171,-23.843309)"
     id="polygon210"
     style="opacity:0.3;fill:#828485"
     points="143.76,441.572 149.459,451.218 148.582,474.894 146.39,451.657 143.76,446.395 137.183,456.48 " />
  <polygon
     transform="matrix(0.52645171,0,0,0.52645171,-19.536171,-23.843309)"
     id="polygon212"
     style="opacity:0.49000005;fill:#828485"
     points="220.159,485.801 280.5,443.71 286.748,444.203 280.5,442.723 219.501,484.65 " />
  <polygon
     transform="matrix(0.52645171,0,0,0.52645171,-19.536171,-23.843309)"
     id="polygon214"
     style="opacity:0.49000005;fill:#828485"
     points="211.116,491.391 211.938,492.542 197.305,504.38 196.647,503.393 " />
  <polygon
     transform="matrix(0.52645171,0,0,0.52645171,-19.536171,-23.843309)"
     id="polygon216"
     style="opacity:0.49000005;fill:#828485"
     points="213.13,476.059 214.158,477.374 210.623,479.882 210.376,477.826 " />
  <polygon
     transform="matrix(0.52645171,0,0,0.52645171,-19.536171,-23.843309)"
     id="polygon218"
     style="opacity:0.49000005;fill:#828485"
     points="259.783,456.589 257.92,458.233 252.659,456.48 " />
  <polygon
     transform="matrix(0.52645171,0,0,0.52645171,-19.536171,-23.843309)"
     id="polygon220"
     style="opacity:0.49000005;fill:#828485"
     points="338.156,495.063 337.937,496.707 268.443,461.303 270.525,460.535 " />
  <polygon
     transform="matrix(0.52645171,0,0,0.52645171,-19.536171,-23.843309)"
     id="polygon222"
     style="opacity:0.49000005;fill:#828485"
     points="345.609,490.13 345.061,491.884 340.458,488.815 341.115,487.061 " />
  <polygon
     transform="matrix(0.52645171,0,0,0.52645171,-19.536171,-23.843309)"
     id="polygon224"
     style="opacity:0.49000005;fill:#828485"
     points="362.38,508.874 343.308,498.461 342.979,499.776 362.49,510.189 366.545,509.86 369.45,509.915 365.888,508.764 " />
  <polygon
     transform="matrix(0.52645171,0,0,0.52645171,-19.536171,-23.843309)"
     id="polygon226"
     style="opacity:0.3;fill:#828485"
     points="225.037,438.668 225.283,441.764 216.158,441.764 216.706,438.668 " />
  <polygon
     transform="matrix(0.52645171,0,0,0.52645171,-19.536171,-23.843309)"
     id="polygon228"
     style="opacity:0.3;fill:#828485"
     points="231.586,465.084 231.38,463.07 224.352,461.385 218.679,462.125 212.376,464.152 212.472,465.783 " />
  <polygon
     transform="matrix(0.52645171,0,0,0.52645171,-19.536171,-23.843309)"
     id="polygon230"
     style="opacity:0.49000005;fill:#828485"
     points="108.93,447.738 108.437,449.876 85.665,445.601 85.912,443.956 " />
  <path
     id="path232"
     style="opacity:0.3;fill:#828485;stroke-width:0.52645171"
     d="m 40.796715,209.22916 2.769853,2.85641 c 0,0 1.125248,-1.21182 0.779016,-1.38493 -0.34623,-0.1731 -2.856406,-2.33705 -2.856406,-2.33705 z" />
  <polygon
     transform="matrix(0.52645171,0,0,0.52645171,-19.536171,-23.843309)"
     id="polygon234"
     style="opacity:0.3;fill:#828485"
     points="132.196,452.424 131.702,455.383 121.344,451.437 122.084,449.136 " />
  <polygon
     transform="matrix(0.52645171,0,0,0.52645171,-19.536171,-23.843309)"
     id="polygon236"
     style="opacity:0.49000005;fill:#828485"
     points="83.281,466.071 89.776,459.412 90.762,460.48 84.35,466.975 " />
  <polygon
     transform="matrix(0.52645171,0,0,0.52645171,-19.536171,-23.843309)"
     id="polygon238"
     style="opacity:0.49000005;fill:#828485"
     points="111.561,472.072 113.123,473.634 98.408,488.185 97.092,486.869 " />
  <polygon
     transform="matrix(0.52645171,0,0,0.52645171,-19.536171,-23.843309)"
     id="polygon240"
     style="opacity:0.3;fill:#828485"
     points="133.84,432.365 133.182,435.653 122.659,441.244 122.002,438.284 " />
  <polyline
     transform="matrix(0.52645171,0,0,0.52645171,-19.536171,-23.843309)"
     id="polyline242"
     style="opacity:0.49000005;fill:#828485"
     points="116.192 403.51 124.742 402.249 126.277 406.058 117.288 406.853 116.74 405.072" />
  <polygon
     transform="matrix(0.52645171,0,0,0.52645171,-19.536171,-23.843309)"
     id="polygon244"
     style="opacity:0.3;fill:#828485"
     points="127.455,385.177 128.441,387.15 120.22,392.083 118.576,389.699 " />
  <polygon
     transform="matrix(0.52645171,0,0,0.52645171,-19.536171,-23.843309)"
     id="polygon246"
     style="opacity:0.3;fill:#828485"
     points="147.843,403.51 149.185,406.36 128.003,421.02 125.975,418.225 " />
  <polygon
     transform="matrix(0.52645171,0,0,0.52645171,-19.536171,-23.843309)"
     id="polygon248"
     style="opacity:0.49000005;fill:#828485"
     points="157.05,394.467 157.461,391.151 146.281,396.549 141.54,398.714 140.17,403.921 143.705,399.482 150.61,396.823 " />
  <polygon
     transform="matrix(0.52645171,0,0,0.52645171,-19.536171,-23.843309)"
     id="polygon250"
     style="opacity:0.49000005;fill:#828485"
     points="157.845,367.913 157.845,370.544 141.403,375.477 141.074,373.504 " />
  <polygon
     transform="matrix(0.52645171,0,0,0.52645171,-19.536171,-23.843309)"
     id="polygon252"
     style="opacity:0.3;fill:#828485"
     points="182.014,469.852 180.986,485.636 180.082,469.606 187.769,457.768 " />
  <polygon
     transform="matrix(0.52645171,0,0,0.52645171,-19.536171,-23.843309)"
     id="polygon254"
     style="opacity:0.3;fill:#828485"
     points="195.373,467.222 197.921,485.76 193.688,468.866 190.523,460.891 " />
  <polygon
     transform="matrix(0.52645171,0,0,0.52645171,-19.536171,-23.843309)"
     id="polygon256"
     style="opacity:0.3;fill:#828485"
     points="203.964,467.55 209.718,474.127 204.95,471.168 202.648,479.388 " />
  <polygon
     transform="matrix(0.52645171,0,0,0.52645171,-19.536171,-23.843309)"
     id="polygon258"
     style="opacity:0.3;fill:#828485"
     points="275.239,502.078 274.252,504.051 248.274,505.366 247.617,503.065 " />
  <polygon
     transform="matrix(0.52645171,0,0,0.52645171,-19.536171,-23.843309)"
     id="polygon260"
     style="opacity:0.3;fill:#828485"
     points="265.702,477.744 262.085,475.442 258.468,477.087 260.813,474.315 262.085,472.812 " />
  <polygon
     transform="matrix(0.52645171,0,0,0.52645171,-19.536171,-23.843309)"
     id="polygon262"
     style="opacity:0.3;fill:#828485"
     points="291.68,491.884 291.023,493.857 284.446,492.542 284.446,490.569 " />
  <polygon
     transform="matrix(0.52645171,0,0,0.52645171,-19.536171,-23.843309)"
     id="polygon264"
     style="opacity:0.3;fill:#828485"
     points="346.185,480.375 352.35,473.469 356.708,479.553 357.776,499.776 357.776,479.388 352.515,472.483 345.692,479.635 345.281,488.185 " />
  <polygon
     transform="matrix(0.52645171,0,0,0.52645171,-19.536171,-23.843309)"
     id="polygon266"
     style="opacity:0.3;fill:#828485"
     points="172.259,493.008 169.628,459.686 161.736,443.025 157.79,452.671 155.598,513.615 153.844,514.93 155.598,452.232 161.297,438.202 171.82,458.809 " />
  <polygon
     transform="matrix(0.52645171,0,0,0.52645171,-19.536171,-23.843309)"
     id="polygon268"
     style="opacity:0.49000005;fill:#828485"
     points="411.87,488.596 413.13,491.062 408.362,493.912 407.321,492.213 " />
  <polygon
     transform="matrix(0.52645171,0,0,0.52645171,-19.536171,-23.843309)"
     id="polygon270"
     style="opacity:0.49000005;fill:#828485"
     points="427.489,484.321 427.16,482.348 423.543,483.334 424.859,485.965 " />
  <polygon
     transform="matrix(0.52645171,0,0,0.52645171,-19.536171,-23.843309)"
     id="polygon272"
     style="opacity:0.3;fill:#828485"
     points="397.236,402.112 396.579,403.756 382.11,394.549 382.439,392.905 " />
  <polygon
     transform="matrix(0.52645171,0,0,0.52645171,-19.536171,-23.843309)"
     id="polygon274"
     style="opacity:0.49000005;fill:#828485"
     points="368.902,367.311 369.011,369.338 354.269,369.777 354.159,367.639 " />
  <polygon
     transform="matrix(0.52645171,0,0,0.52645171,-19.536171,-23.843309)"
     id="polygon276"
     style="opacity:0.49000005;fill:#828485"
     points="397.894,422.171 403.155,427.761 404.8,427.761 401.016,421.699 392.686,417.534 390.989,419.869 " />
  <polygon
     transform="matrix(0.52645171,0,0,0.52645171,-19.536171,-23.843309)"
     id="polygon278"
     style="opacity:0.49000005;fill:#828485"
     points="415.651,410.991 409.074,414.937 403.923,420.746 405.512,421.294 417.295,412.964 " />
  <polygon
     transform="matrix(0.52645171,0,0,0.52645171,-19.536171,-23.843309)"
     id="polygon280"
     style="opacity:0.49000005;fill:#828485"
     points="422.337,405.51 425.626,409.456 426.666,406.135 424.475,403.373 419.542,403.866 418.063,406.826 " />
  <polygon
     transform="matrix(0.52645171,0,0,0.52645171,-19.536171,-23.843309)"
     id="polygon282"
     style="opacity:0.3;fill:#828485"
     points="341.499,468.921 341.28,471.277 323.523,471.606 323.468,469.469 " />
  <polygon
     transform="matrix(0.52645171,0,0,0.52645171,-19.536171,-23.843309)"
     id="polygon284"
     style="opacity:0.3;fill:#828485"
     points="336.731,440.257 336.731,442.23 327.852,441.901 327.852,439.928 " />
  <polygon
     transform="matrix(0.52645171,0,0,0.52645171,-19.536171,-23.843309)"
     id="polygon286"
     style="opacity:0.3;fill:#828485"
     points="318.261,464.92 319.905,485.636 321.604,486.568 320.4,463.421 312.508,455.858 304.669,464.098 304.176,477.58 305.766,478.292 306.752,465.906 312.342,459.33 " />
  <path
     id="path288"
     style="opacity:0.3;fill:#828485;stroke-width:0.52645171"
     d="m 184.02106,235.13882 -1.52917,-4.9915 1.70297,-10.07932 5.19344,6.83808 c 0,0 2.59608,9.09835 1.73049,7.54029 -0.86557,-1.55803 -2.94297,-7.79019 -2.94297,-7.79019 l -3.46229,-4.50101 -0.6925,6.92462 z" />
  <polygon
     transform="matrix(0.52645171,0,0,0.52645171,-19.536171,-23.843309)"
     id="polygon290"
     style="opacity:0.3;fill:#828485"
     points="365.668,460.535 361.065,452.314 359.092,459.878 364.353,495.392 356.79,460.206 359.422,447.199 367.258,457.631 378.493,505.586 " />
  <polygon
     transform="matrix(0.52645171,0,0,0.52645171,-19.536171,-23.843309)"
     id="polygon292"
     style="opacity:0.3;fill:#828485"
     points="405.951,465.413 399.54,458.215 394.278,457.119 394.113,459.494 399.867,460.645 404.471,466.564 408.746,479.388 407.87,472.245 " />
  <polygon
     transform="matrix(0.52645171,0,0,0.52645171,-19.536171,-23.843309)"
     id="polygon294"
     style="opacity:0.49000005;fill:#828485"
     points="422.228,460.316 422.557,461.467 410.061,467.879 409.074,466.399 " />
 
  <polygon
     transform="matrix(0.52645171,0,0,0.52645171,-19.536171,-23.843309)"
     id="polygon318"
     style="opacity:0.51999996;fill:#828485"
     points="316.425,80.676 292.338,188.37 312.561,79.443 321.111,69.249 " />
  <polygon
     transform="matrix(0.52645171,0,0,0.52645171,-19.536171,-23.843309)"
     id="polygon320"
     style="opacity:0.51999996;fill:#828485"
     points="293.16,75.004 274.8,196.262 296.038,76.566 301.753,62.553 " />
  <polygon
     transform="matrix(0.52645171,0,0,0.52645171,-19.536171,-23.843309)"
     id="polygon322"
     style="opacity:0.51999996;fill:#828485"
     points="267.922,72.455 265.785,55.931 262.25,75.415 258.578,190.562 260.112,75.004 265.852,50.593 270.224,72.044 273.485,189.685 " />
  <polygon
     transform="matrix(0.52645171,0,0,0.52645171,-19.536171,-23.843309)"
     id="polygon324"
     style="opacity:0.3;fill:#828485"
     points="391.756,448.149 388.029,443.107 382.768,438.942 378.586,438.24 377.068,432.803 379.26,433.68 384.083,436.969 389.125,441.792 392.194,445.957 " />
  <path
     id="path326"
     style="opacity:0.49000005;fill:#828485;stroke-width:0.52645171"
     d="m 65.40799,176.42375 c 0.173119,0.0576 8.48267,0.1731 8.48267,0.1731 l -0.11541,0.92331 -8.424964,-0.11542 z" />
  <polygon
     transform="matrix(0.52645171,0,0,0.52645171,-19.536171,-23.843309)"
     id="polygon328"
     style="opacity:0.55;fill:#828485"
     points="175.163,353.883 175.273,357.5 164.421,357.391 164.641,353.554 " />
  <polygon
     transform="matrix(0.52645171,0,0,0.52645171,-19.536171,-23.843309)"
     id="polygon330"
     style="opacity:0.49000005;fill:#828485"
     points="398.004,380.409 396.195,380.464 395.866,381.505 395.373,383.478 394.825,381.396 395.757,379.423 398.607,379.203 400.854,380.245 " />
  <polygon
     transform="matrix(0.52645171,0,0,0.52645171,-19.536171,-23.843309)"
     id="polygon332"
     style="opacity:0.49000005;fill:#828485"
     points="362.216,354.431 360.517,354.486 359.859,355.637 359.037,358.048 358.982,355.198 360.407,353.664 362.818,353.664 364.189,355.308 " />
  

  <polygon
     transform="matrix(0.52645171,0,0,0.52645171,-19.536171,-23.843309)"
     id="polygon366"
     style="fill:#b6a366"
     points="293.639,587.494 293.622,587.513 293.639,587.513 300.212,587.513 300.212,586.15 300.212,562.855 312.704,586.18 313.408,587.513 313.417,587.513 319.99,587.513 319.999,587.513 319.999,586.15 319.99,586.15 319.99,550.578 313.417,550.578 313.417,550.58 313.417,551.942 313.417,575.239 313.408,575.222 313.408,550.58 312.585,550.58 312.585,573.685 300.943,551.942 300.212,550.578 293.639,550.578 " />
  <polygon
     transform="matrix(0.52645171,0,0,0.52645171,-19.536171,-23.843309)"
     id="polygon368"
     style="fill:#b6a366"
     points="232.058,578.091 232.052,578.091 213.413,578.091 213.413,573.756 232.052,573.756 232.052,565.592 232.099,565.592 232.052,564.683 232.052,564.335 232.034,564.335 232.028,564.227 213.413,564.225 213.413,560.505 232.099,560.505 232.099,560 232.099,550.58 232.058,550.58 232.052,550.58 232.052,550.578 212.287,550.578 205.762,550.578 205.715,550.578 205.715,550.58 205.715,560 205.715,587.513 212.287,587.513 232.052,587.513 232.052,586.15 232.052,579.455 " />
  <polygon
     transform="matrix(0.52645171,0,0,0.52645171,-19.536171,-23.843309)"
     id="polygon370"
     style="fill:#b6a366"
     points="242.677,560.505 242.677,578.045 242.704,578.091 235.076,578.091 235.076,587.513 235.076,587.513 235.077,587.513 235.087,587.513 235.086,587.513 261.367,587.513 261.367,587.513 261.367,586.15 261.367,579.455 261.382,579.455 261.367,578.815 261.367,578.091 261.349,578.091 253.761,578.091 253.761,560.505 261.413,560.505 261.413,560 261.413,550.58 261.372,550.58 261.367,550.58 261.367,550.578 235.076,550.578 235.076,550.58 235.07,550.58 235.07,551.942 235.076,551.942 235.076,560 235.086,560 235.086,560.501 235.076,560.505 235.086,560.505 236.261,560.505 " />
  <path
     id="path372"
     style="fill:#b6a366;stroke-width:0.52645171"
     d="m 133.48366,266.01073 v -8e-4 h -13.86554 v 19.44417 h 13.87232 v -12.25789 h -6.92993 v 0.71748 h 0.002 v 4.56447 h 3.02692 v 2.01567 h -6.0779 v -9.25807 h 9.99634 v -5.22504 h -0.0249 z m -6.30127,12.20159 v -5.4e-4 h 2.84147 v 5.4e-4 z" />
  <polygon
     transform="matrix(0.52645171,0,0,0.52645171,-19.536171,-23.843309)"
     id="polygon374"
     style="fill:#b6a366"
     points="329.493,573.582 324.143,573.582 322.965,573.582 322.919,573.582 322.919,573.756 322.919,574.945 322.919,586.15 322.91,586.15 322.91,587.513 322.919,587.513 329.493,587.513 349.258,587.513 349.258,587.513 349.258,586.15 349.258,578.091 332.421,560.505 342.698,560.505 342.698,563.547 342.698,564.404 342.698,564.657 342.698,564.909 342.698,564.91 349.27,564.91 349.27,564.909 349.305,564.909 349.305,563.547 349.27,563.547 349.27,550.578 342.698,550.578 342.698,550.579 322.937,550.579 322.937,550.58 322.919,550.58 322.919,560 340.414,578.091 329.493,578.091 329.493,574.945 329.493,573.756 " />
  <path
     id="path376"
     style="fill:#b6a366;stroke-width:0.52645171"
     d="m 87.157409,266.01073 h -0.02378 v -8e-4 H 73.267224 v 19.44417 h 3.460368 v -7.24238 h 3.081321 l 3.576268,6.69277 0.291039,0.54961 h 3.463067 l -0.308377,-0.57775 -0.07368,-0.1397 h -8.05e-4 l -3.479324,-6.52492 h 3.856474 l 0.01462,-7.24183 h 0.01004 v -4.95892 0 -8e-4 z m -10.012063,7.18391 0.01596,-1.95911 h 6.517573 v 2.01649 h -0.0056 v -0.0579 z" />
  <rect
     id="rect378"
     style="fill:#282520;stroke-width:0.52645171"
     height="4.4009628"
     width="61.880936"
     y="273.60666"
     x="175.23039" />
  <rect
     id="rect380"
     style="fill:#282520;stroke-width:0.52645171"
     height="4.4009628"
     width="61.880936"
     y="273.60666"
     x="0.33759603" />
</svg>
